<svg xmlns="http://www.w3.org/2000/svg" xmlns:xlink="http://www.w3.org/1999/xlink" width="74" height="74" viewBox="0 0 74 74">
  <defs>
    <clipPath id="clip-path">
      <rect id="사각형_31" data-name="사각형 31" width="74" height="74" transform="translate(-0.461 -0.46)" fill="none" stroke="#ffebcc" stroke-width="1.5"/>
    </clipPath>
  </defs>
  <g id="그룹_165" data-name="그룹 165" transform="translate(0.555 0.554)">
    <g id="그룹_21" data-name="그룹 21" transform="translate(-0.094 -0.094)" clip-path="url(#clip-path)">
      <path id="패스_11" data-name="패스 11" d="M34.316,32.3H.5V27.1a2.6,2.6,0,0,1,2.6-2.6H31.714a2.6,2.6,0,0,1,2.6,2.6Z" transform="translate(0.923 34.352)" fill="none" stroke="#ffebcc" stroke-linecap="round" stroke-linejoin="round" stroke-width="1.5"/>
      <path id="패스_12" data-name="패스 12" d="M30.113,29.3H1.5V24.1a2.6,2.6,0,0,1,2.6-2.6H27.512a2.6,2.6,0,0,1,2.6,2.6Z" transform="translate(2.524 29.549)" fill="none" stroke="#ffebcc" stroke-linecap="round" stroke-linejoin="round" stroke-width="1.5"/>
      <path id="패스_13" data-name="패스 13" d="M26.211,12.5H5.4a3.9,3.9,0,1,0,0,7.8h20.81a3.9,3.9,0,1,0,0-7.8Z" transform="translate(2.524 20.138)" fill="none" stroke="#ffebcc" stroke-linecap="round" stroke-linejoin="round" stroke-width="1.5"/>
      <path id="패스_14" data-name="패스 14" d="M26.211.5H5.4a3.9,3.9,0,1,0,0,7.8h20.81a3.9,3.9,0,1,0,0-7.8Z" transform="translate(2.524 0.923)" fill="none" stroke="#ffebcc" stroke-linecap="round" stroke-linejoin="round" stroke-width="1.5"/>
      <rect id="사각형_28" data-name="사각형 28" width="18.208" height="23.411" transform="translate(9.227 9.227)" fill="none" stroke="#ffebcc" stroke-linecap="round" stroke-linejoin="round" stroke-width="1.5"/>
      <rect id="사각형_29" data-name="사각형 29" width="10.405" height="7.804" transform="translate(27.435 17.031)" fill="none" stroke="#ffebcc" stroke-linecap="round" stroke-linejoin="round" stroke-width="1.5"/>
      <rect id="사각형_30" data-name="사각형 30" width="33.816" height="13.006" rx="1" transform="translate(37.84 14.429)" fill="none" stroke="#ffebcc" stroke-linecap="round" stroke-linejoin="round" stroke-width="1.5"/>
    </g>
  </g>
</svg>
