<svg id="그룹_250" data-name="그룹 250" xmlns="http://www.w3.org/2000/svg" xmlns:xlink="http://www.w3.org/1999/xlink" width="61.246" height="61.247" viewBox="0 0 61.246 61.247">
  <defs>
    <clipPath id="clip-path">
      <rect id="사각형_332" data-name="사각형 332" width="61.246" height="61.247" fill="#ffebcc"/>
    </clipPath>
  </defs>
  <g id="그룹_249" data-name="그룹 249" clip-path="url(#clip-path)">
    <path id="패스_1521" data-name="패스 1521" d="M0,6.707.023,49.053a7.668,7.668,0,0,0,7.659,7.589H46.1v3.839a.766.766,0,0,0,.766.766h6.7a7.685,7.685,0,0,0,7.686-7.667V19.618a.068.068,0,0,0,0-.014s0-.009,0-.014L61.223,19a7.668,7.668,0,0,0-7.659-7.589H34.939C34.561,5.379,33.449,0,30.682,0S26.8,5.379,26.426,11.41H13.054V.766A.766.766,0,0,0,12.288,0H6.621A6.62,6.62,0,0,0,0,6.6v.1ZM59.715,53.58a6.152,6.152,0,0,1-6.155,6.135H47.626V27.284h5.933A7.689,7.689,0,0,0,59.715,24.2ZM27.555,35.661a5.379,5.379,0,0,1,2.968-.879,5,5,0,0,1,4.054,1.955,6.373,6.373,0,0,1,.976,5.491c-.791,3-3.338,5.436-4.859,6.666a7.309,7.309,0,0,0-3.124-5.512l-.237-.2a5.016,5.016,0,0,1-1.742-4.1,4.383,4.383,0,0,1,1.964-3.42m6.6-2.411H27.211a.654.654,0,0,1-.653-.653V30.643a.654.654,0,0,1,.653-.654h6.943a.655.655,0,0,1,.653.654V32.6a.654.654,0,0,1-.653.653M30.682,1.531c1,0,2.893,3.291,2.893,15.747a104.059,104.059,0,0,1-.565,11.18H28.355a104.26,104.26,0,0,1-.565-11.18c0-12.456,1.893-15.747,2.892-15.747M26.82,28.5a2.185,2.185,0,0,0-1.793,2.145V32.6a2.186,2.186,0,0,0,1.367,2.023,5.9,5.9,0,0,0-2.332,4.363,6.557,6.557,0,0,0,2.272,5.359l.242.207c1.449,1.234,2.818,2.4,2.588,5.814a.766.766,0,0,0,1.177.7c.22-.14,5.392-3.5,6.691-8.441A7.91,7.91,0,0,0,35.788,35.8a6.659,6.659,0,0,0-1.073-1.1,2.181,2.181,0,0,0,1.624-2.1V30.643A2.186,2.186,0,0,0,34.546,28.5a106.034,106.034,0,0,0,.561-11.22c0-1.418-.026-2.884-.088-4.336H53.565a6.138,6.138,0,0,1,6.128,6.09l.022.589a6.152,6.152,0,0,1-6.155,6.132h-6.7a.765.765,0,0,0-.766.766V55.111H7.681a6.132,6.132,0,0,1-6.127-6.064l-.02-38.259a6.219,6.219,0,0,0,4.7,2.154h20.11c-.061,1.452-.087,2.918-.087,4.336A106.155,106.155,0,0,0,26.82,28.5M6.621,1.531h4.9V11.41H6.236a4.71,4.71,0,0,1-4.7-4.7V6.6a5.087,5.087,0,0,1,5.09-5.073" fill="#ffebcc"/>
  </g>
</svg>
