<svg id="그룹_254" data-name="그룹 254" xmlns="http://www.w3.org/2000/svg" xmlns:xlink="http://www.w3.org/1999/xlink" width="62.891" height="62.891" viewBox="0 0 62.891 62.891">
  <defs>
    <clipPath id="clip-path">
      <rect id="사각형_334" data-name="사각형 334" width="62.891" height="62.891" fill="#ffebcc"/>
    </clipPath>
  </defs>
  <g id="그룹_253" data-name="그룹 253" clip-path="url(#clip-path)">
    <path id="패스_1525" data-name="패스 1525" d="M62.1,47.334H58.162V7.889a7.875,7.875,0,0,0-7.8-7.865L6.887,0H6.781A6.8,6.8,0,0,0,0,6.8v5.819a.786.786,0,0,0,.786.786h10.93V55a7.869,7.869,0,0,0,7.77,7.864l.63.023h34.9A7.892,7.892,0,0,0,62.891,55V48.12a.786.786,0,0,0-.786-.786M1.572,11.833V6.8A5.224,5.224,0,0,1,6.78,1.573h.106A4.836,4.836,0,0,1,11.716,6.4v5.428ZM20.147,61.319,19.52,61.3A6.3,6.3,0,0,1,13.289,55V6.4a6.384,6.384,0,0,0-2.211-4.829L50.359,1.6A6.3,6.3,0,0,1,56.59,7.889V34.442H51.033a.786.786,0,0,0,0,1.573H56.59v11.32H27.23a.786.786,0,0,0-.786.786V55a6.317,6.317,0,0,1-6.3,6.32M61.318,55a6.317,6.317,0,0,1-6.3,6.32H24.854A7.894,7.894,0,0,0,28.016,55V48.906h33.3Z" transform="translate(0 -0.001)" fill="#ffebcc"/>
    <path id="패스_1526" data-name="패스 1526" d="M224.708,83.495h6.236a.786.786,0,0,0,0-1.572h-6.236a.786.786,0,0,0,0,1.572" transform="translate(-189.541 -69.344)" fill="#ffebcc"/>
    <path id="패스_1527" data-name="패스 1527" d="M182.892,83.495h2.436a.786.786,0,1,0,0-1.572h-2.436a.786.786,0,1,0,0,1.572" transform="translate(-154.145 -69.344)" fill="#ffebcc"/>
    <path id="패스_1528" data-name="패스 1528" d="M148.7,118.97a.786.786,0,0,0-.786-.786H141.68a.786.786,0,1,0,0,1.573h6.235a.786.786,0,0,0,.786-.786" transform="translate(-119.261 -100.038)" fill="#ffebcc"/>
    <path id="패스_1529" data-name="패스 1529" d="M208.239,119.757h2.436a.786.786,0,0,0,0-1.573h-2.436a.786.786,0,0,0,0,1.573" transform="translate(-175.6 -100.038)" fill="#ffebcc"/>
    <path id="패스_1530" data-name="패스 1530" d="M286.228,225.882h2.436a.786.786,0,1,0,0-1.573h-2.436a.786.786,0,0,0,0,1.573" transform="translate(-241.615 -189.868)" fill="#ffebcc"/>
    <path id="패스_1531" data-name="패스 1531" d="M251.249,260.579h-6.236a.786.786,0,0,0,0,1.573h6.236a.786.786,0,0,0,0-1.573" transform="translate(-206.728 -220.569)" fill="#ffebcc"/>
    <path id="패스_1532" data-name="패스 1532" d="M311.571,262.152h2.436a.786.786,0,0,0,0-1.573h-2.436a.786.786,0,0,0,0,1.573" transform="translate(-263.066 -220.569)" fill="#ffebcc"/>
  </g>
</svg>
