<svg id="그룹_252" data-name="그룹 252" xmlns="http://www.w3.org/2000/svg" xmlns:xlink="http://www.w3.org/1999/xlink" width="65.102" height="64.993" viewBox="0 0 65.102 64.993">
  <defs>
    <clipPath id="clip-path">
      <rect id="사각형_333" data-name="사각형 333" width="65.102" height="64.993" fill="#ffebcc"/>
    </clipPath>
  </defs>
  <g id="그룹_251" data-name="그룹 251" clip-path="url(#clip-path)">
    <path id="패스_1522" data-name="패스 1522" d="M46.623,38.492a2.956,2.956,0,0,0-3.034-.7L40.73,34.939a22.276,22.276,0,0,0-2.6-28.417,22.384,22.384,0,0,0-31.585,0A22.315,22.315,0,0,0,35,40.653l2.863,2.859a2.9,2.9,0,0,0,.7,3.029l16.9,16.877a5.409,5.409,0,0,0,7.632,0l.426-.425a5.4,5.4,0,0,0,0-7.623ZM7.69,36.909a20.649,20.649,0,0,1,0-29.238,20.756,20.756,0,0,1,29.289,0,20.651,20.651,0,0,1,0,29.238,20.759,20.759,0,0,1-29.29,0m30.438,1.15a22.658,22.658,0,0,0,1.619-1.805l2.466,2.463-1.706,1.7-1.72,1.716-2.466-2.462a22.528,22.528,0,0,0,1.807-1.615m24.25,23.783-.426.426a3.782,3.782,0,0,1-5.335,0L39.713,45.39a1.333,1.333,0,0,1,0-1.876l3.346-3.341.534-.532a1.337,1.337,0,0,1,1.887,0l16.9,16.877a3.773,3.773,0,0,1,0,5.324" transform="translate(0 0)" fill="#ffebcc"/>
    <path id="패스_1523" data-name="패스 1523" d="M92.421,155.561a.813.813,0,0,0-1.168,1.131l8.251,8.519a.813.813,0,0,0,1.168-1.131Z" transform="translate(-76.58 -130.667)" fill="#ffebcc"/>
    <path id="패스_1524" data-name="패스 1524" d="M83.872,187.356a.813.813,0,0,0-1.149,1.149l4.117,4.111a.813.813,0,1,0,1.149-1.15Z" transform="translate(-69.395 -157.424)" fill="#ffebcc"/>
  </g>
</svg>
